<svg width="48" height="48" viewBox="0 0 48 48" fill="none" xmlns="http://www.w3.org/2000/svg">
<path d="M47.7475 26.2325L43.1656 19.8018C42.9191 8.84316 33.3149 0 21.5449 0C-0.203342 0.416344 -6.75809 25.1182 7.76457 35.8242L4.79926 46.2315C4.54526 47.1232 5.26437 48 6.25151 48H23.9595C24.6492 48 25.2503 47.5608 25.4176 46.9348L26.7576 41.9198L32.5449 43.7246C35.4361 44.6261 38.5725 43.159 39.5365 40.4539L42.8014 31.2892C44.7647 30.8261 46.9575 29.2953 47.8414 27.6413C48.0825 27.19 48.0468 26.6524 47.7475 26.2325ZM31.9018 19.4813C31.8278 21.3451 28.9691 21.3437 28.8959 19.4813V18.1007L23.6002 25.5331C23.3505 25.8836 22.9459 26.111 22.4978 26.1524C22.0491 26.1941 21.6053 26.0452 21.287 25.7474L16.144 20.9353L12.3314 26.2862C12.0211 26.7217 11.1382 27.2318 10.2472 26.6763C9.55648 26.2454 9.36992 25.3723 9.83042 24.7262L14.6599 17.9481C14.9096 17.5975 15.3142 17.3702 15.7622 17.3288C16.2106 17.2868 16.6547 17.4358 16.9731 17.7337L22.1161 22.5458L26.3948 16.5406L25.0325 17.0717C24.2662 17.3703 23.3863 17.0314 23.0672 16.3145C22.7478 15.5976 23.1102 14.7743 23.8763 14.4756L29.8206 12.1582C30.2846 11.9772 30.8141 12.0253 31.2324 12.2861C31.6505 12.5469 31.9017 12.9861 31.9017 13.4562V19.4813H31.9018Z" fill="#6B48F2"/>
</svg>
