<svg width="48" height="48" viewBox="0 0 48 48" fill="none" xmlns="http://www.w3.org/2000/svg">
<path d="M43.6922 7.20007H33.8461V4.80001C33.8461 2.15279 32.0798 0 29.9076 0H18.0923C15.9202 0 14.1538 2.15267 14.1538 4.80001V7.19996H4.30774C2.13557 7.20007 0.369263 9.35274 0.369263 12V19.1999C0.369263 21.8473 2.13557 23.9999 4.30774 23.9999H20.0616V22.7999C20.0616 22.1366 20.502 21.5999 21.0462 21.5999H26.9539C27.4981 21.5999 27.9385 22.1366 27.9385 22.7999V23.9999H43.6924C45.8644 23.9999 47.6307 21.8473 47.6307 19.1999V12C47.6307 9.35274 45.8644 7.20007 43.6922 7.20007ZM29.9076 7.20007H18.0923V4.80001H29.9076V7.20007Z" fill="#6B48F2"/>
<path d="M47.0845 25.2947C46.7489 25.092 46.348 25.1389 46.0517 25.413C45.3518 26.0588 44.5363 26.3998 43.6921 26.3998H27.9384V29.9998C27.9384 30.6631 27.498 31.1998 26.9538 31.1998H21.0461C20.5019 31.1998 20.0615 30.6631 20.0615 29.9998V26.3998H4.30774C3.4635 26.3998 2.64815 26.0588 1.94809 25.413C1.65095 25.1365 1.25098 25.0896 0.915353 25.2947C0.580831 25.4975 0.369263 25.9134 0.369263 26.3694V43.1998C0.369263 45.847 2.13557 47.9998 4.30774 47.9998H43.6923C45.8644 47.9998 47.6308 45.8471 47.6308 43.1998V26.3694C47.6307 25.9134 47.4191 25.4975 47.0845 25.2947Z" fill="#6B48F2"/>
</svg>
