<svg width="48" height="48" viewBox="0 0 48 48" fill="none" xmlns="http://www.w3.org/2000/svg">
<path d="M4.21875 22.5942H18.375C20.7013 22.5942 22.5938 20.7018 22.5938 18.3755V4.21924C22.5938 1.89293 20.7013 0.000488281 18.375 0.000488281H4.21875C1.89244 0.000488281 0 1.89293 0 4.21924V18.3755C0 20.7018 1.89244 22.5942 4.21875 22.5942ZM7.125 9.93799H9.9375V7.12549C9.9375 6.34821 10.5665 5.71924 11.3438 5.71924C12.121 5.71924 12.75 6.34821 12.75 7.12549V9.93799H15.5625C16.3398 9.93799 16.9688 10.567 16.9688 11.3442C16.9688 12.1215 16.3398 12.7505 15.5625 12.7505H12.75V15.563C12.75 16.3403 12.121 16.9692 11.3438 16.9692C10.5665 16.9692 9.9375 16.3403 9.9375 15.563V12.7505H7.125C6.34772 12.7505 5.71875 12.1215 5.71875 11.3442C5.71875 10.567 6.34772 9.93799 7.125 9.93799Z" fill="#6B48F2"/>
<path d="M43.7812 0.000488281H29.625C27.2987 0.000488281 25.4062 1.89293 25.4062 4.21924V18.3755C25.4062 20.7018 27.2987 22.5942 29.625 22.5942H43.7812C46.1076 22.5942 48 20.7018 48 18.3755V4.21924C48 1.89293 46.1076 0.000488281 43.7812 0.000488281ZM40.9688 12.7505H32.4375C31.6602 12.7505 31.0312 12.1215 31.0312 11.3442C31.0312 10.567 31.6602 9.93799 32.4375 9.93799H40.9688C41.746 9.93799 42.375 10.567 42.375 11.3442C42.375 12.1215 41.746 12.7505 40.9688 12.7505Z" fill="#6B48F2"/>
<path d="M43.7812 25.4058H29.625C27.2987 25.4058 25.4062 27.2982 25.4062 29.6245V43.7808C25.4062 46.1071 27.2987 47.9995 29.625 47.9995H43.7812C46.1076 47.9995 48 46.1071 48 43.7808V29.6245C48 27.2982 46.1076 25.4058 43.7812 25.4058ZM40.9688 40.8745H32.4375C31.6602 40.8745 31.0312 40.2455 31.0312 39.4683C31.0312 38.691 31.6602 38.062 32.4375 38.062H40.9688C41.746 38.062 42.375 38.691 42.375 39.4683C42.375 40.2455 41.746 40.8745 40.9688 40.8745ZM40.9688 35.2495H32.4375C31.6602 35.2495 31.0312 34.6205 31.0312 33.8433C31.0312 33.066 31.6602 32.437 32.4375 32.437H40.9688C41.746 32.437 42.375 33.066 42.375 33.8433C42.375 34.6205 41.746 35.2495 40.9688 35.2495Z" fill="#6B48F2"/>
<path d="M22.5938 43.7808V29.6245C22.5938 27.2982 20.7013 25.4058 18.375 25.4058H4.21875C1.89244 25.4058 0 27.2982 0 29.6245V43.7808C0 46.1071 1.89244 47.9995 4.21875 47.9995H18.375C20.7013 47.9995 22.5938 46.1071 22.5938 43.7808ZM15.3208 38.6443C15.8701 39.1936 15.8701 40.0835 15.3208 40.6328C14.7715 41.1821 13.8816 41.1821 13.3323 40.6328L11.3438 38.6443L9.35522 40.6328C8.80594 41.1821 7.91597 41.1821 7.36669 40.6328C6.81741 40.0835 6.81741 39.1936 7.36669 38.6443L9.35522 36.6558L7.36669 34.6672C6.81741 34.1179 6.81741 33.228 7.36669 32.6787C7.91597 32.1294 8.80594 32.1294 9.35522 32.6787L11.3438 34.6672L13.3323 32.6787C13.8816 32.1294 14.7715 32.1294 15.3208 32.6787C15.8701 33.228 15.8701 34.1179 15.3208 34.6672L13.3323 36.6558L15.3208 38.6443Z" fill="#6B48F2"/>
</svg>
