<svg width="32" height="32" viewBox="0 0 32 32" fill="none" xmlns="http://www.w3.org/2000/svg">
<path d="M14.7334 19.9327L12.2667 22.3993C11.7467 22.9193 10.92 22.9193 10.3867 22.4127C10.24 22.266 10.0934 22.1327 9.94669 21.986C8.57335 20.5993 7.33335 19.146 6.22669 17.626C5.13335 16.106 4.25335 14.586 3.61335 13.0793C2.98669 11.5594 2.66669 10.106 2.66669 8.71935C2.66669 7.81268 2.82669 6.94602 3.14669 6.14602C3.46669 5.33268 3.97335 4.58602 4.68002 3.91935C5.53335 3.07935 6.46669 2.66602 7.45335 2.66602C7.82669 2.66602 8.20002 2.74602 8.53335 2.90602C8.88002 3.06602 9.18669 3.30602 9.42669 3.65268L12.52 8.01268C12.76 8.34602 12.9334 8.65268 13.0534 8.94602C13.1734 9.22602 13.24 9.50602 13.24 9.75935C13.24 10.0793 13.1467 10.3993 12.96 10.706C12.7867 11.0127 12.5334 11.3327 12.2134 11.6527L11.2 12.706C11.0534 12.8527 10.9867 13.026 10.9867 13.2393C10.9867 13.346 11 13.4393 11.0267 13.546C11.0667 13.6527 11.1067 13.7327 11.1334 13.8127C11.3734 14.2527 11.7867 14.826 12.3734 15.5194C12.9734 16.2127 13.6134 16.9193 14.3067 17.626C14.44 17.7593 14.5867 17.8927 14.72 18.026C15.2534 18.546 15.2667 19.3993 14.7334 19.9327Z" fill="black"/>
<path d="M29.2933 24.4407C29.2933 24.814 29.2267 25.2007 29.0933 25.574C29.0533 25.6807 29.0133 25.7874 28.96 25.894C28.7333 26.374 28.44 26.8274 28.0533 27.254C27.4 27.974 26.68 28.494 25.8667 28.8274C25.8533 28.8274 25.84 28.8407 25.8267 28.8407C25.04 29.1607 24.1867 29.334 23.2667 29.334C21.9067 29.334 20.4533 29.014 18.92 28.3607C17.3867 27.7074 15.8533 26.8274 14.3333 25.7207C13.8133 25.334 13.2933 24.9474 12.8 24.534L17.16 20.174C17.5333 20.454 17.8667 20.6674 18.1467 20.814C18.2133 20.8407 18.2933 20.8807 18.3867 20.9207C18.4933 20.9607 18.6 20.974 18.72 20.974C18.9467 20.974 19.12 20.894 19.2667 20.7474L20.28 19.7474C20.6133 19.414 20.9333 19.1607 21.24 19.0007C21.5467 18.814 21.8533 18.7207 22.1867 18.7207C22.44 18.7207 22.7067 18.774 23 18.894C23.2933 19.014 23.6 19.1874 23.9333 19.414L28.3467 22.5474C28.6933 22.7874 28.9333 23.0674 29.08 23.4007C29.2133 23.734 29.2933 24.0674 29.2933 24.4407Z" fill="black"/>
</svg>
