<svg width="20" height="20" viewBox="0 0 20 20" fill="none" xmlns="http://www.w3.org/2000/svg">
<path d="M15.0001 4.99935C14.4917 4.99935 14.0251 4.70768 13.7917 4.25768L13.1917 3.04935C12.8084 2.29102 11.8084 1.66602 10.9584 1.66602H9.05006C8.19173 1.66602 7.19173 2.29102 6.80839 3.04935L6.20839 4.25768C5.97506 4.70768 5.50839 4.99935 5.00006 4.99935C3.19173 4.99935 1.75839 6.52435 1.87506 8.32435L2.30839 15.2077C2.40839 16.9243 3.33339 18.3327 5.63339 18.3327H14.3667C16.6667 18.3327 17.5834 16.9243 17.6917 15.2077L18.1251 8.32435C18.2417 6.52435 16.8084 4.99935 15.0001 4.99935ZM8.75006 6.04102H11.2501C11.5917 6.04102 11.8751 6.32435 11.8751 6.66602C11.8751 7.00768 11.5917 7.29102 11.2501 7.29102H8.75006C8.40839 7.29102 8.12506 7.00768 8.12506 6.66602C8.12506 6.32435 8.40839 6.04102 8.75006 6.04102ZM10.0001 15.0993C8.45006 15.0993 7.18339 13.841 7.18339 12.2827C7.18339 10.7243 8.44173 9.46602 10.0001 9.46602C11.5584 9.46602 12.8167 10.7243 12.8167 12.2827C12.8167 13.841 11.5501 15.0993 10.0001 15.0993Z" fill="black"/>
</svg>
