<svg width="42" height="42" viewBox="0 0 42 42" fill="none" xmlns="http://www.w3.org/2000/svg">
<g id="choose 1">
<g id="Icon">
<path id="Vector" d="M37.0812 34.2546C38.4969 32.2876 38.7384 29.7081 37.7147 27.5119C37.0024 25.9859 36.1467 24.1484 35.3172 22.3721C34.4562 20.5259 32.8987 19.0979 30.9859 18.4014C29.0714 17.7049 26.9592 17.7976 25.1147 18.6586C24.0944 19.1329 23.3804 19.4671 23.3804 19.4671C22.5002 19.6649 21.7389 19.5214 21.3574 18.7041C20.6802 17.2481 19.6022 14.9399 18.7674 13.1479C18.4437 12.4549 17.8592 11.9194 17.1417 11.6586C16.4242 11.3979 15.6332 11.4311 14.9402 11.7549C14.2489 12.0769 13.7134 12.6614 13.4527 13.3789C13.1902 14.0964 13.2252 14.8891 13.5489 15.5804C15.6244 20.0341 19.6319 28.6266 19.6319 28.6266C19.6319 28.6266 17.4094 27.7079 15.4284 26.8906C14.6392 26.5651 13.7519 26.5756 12.9697 26.9186C12.1892 27.2634 11.5819 27.9126 11.2897 28.7141C11.2897 28.7159 11.2879 28.7176 11.2879 28.7194C10.7087 30.3101 11.5172 32.0706 13.1009 32.6674C15.8064 33.6876 19.4552 35.0614 19.4552 35.0614C22.3777 36.1254 23.1389 36.4841 24.2397 38.5754C24.7052 39.2929 25.6292 39.5589 26.4062 39.1966C29.6839 37.7056 37.0812 34.2546 37.0812 34.2546Z" fill="#F0631C"/>
<path id="Vector_2" fill-rule="evenodd" clip-rule="evenodd" d="M14.3587 8.12317C14.665 8.78117 14.3815 9.56167 13.7252 9.86792C13.069 10.1742 12.2867 9.89067 11.9805 9.23267L10.4632 5.97767C10.157 5.32142 10.4405 4.53917 11.0967 4.23292C11.753 3.92667 12.5352 4.21192 12.8415 4.86817L14.3587 8.12317Z" fill="#F0631C"/>
<path id="Vector_3" fill-rule="evenodd" clip-rule="evenodd" d="M20.3004 7.77864C20.0536 8.45939 19.2994 8.81114 18.6186 8.56439C17.9379 8.31589 17.5861 7.56164 17.8346 6.88089L19.0631 3.50514C19.3099 2.82439 20.0641 2.47439 20.7449 2.72114C21.4256 2.96964 21.7774 3.72214 21.5289 4.40289L20.3004 7.77864Z" fill="#F0631C"/>
<path id="Vector_4" fill-rule="evenodd" clip-rule="evenodd" d="M8.79545 11.0968C9.4762 11.3436 9.82795 12.0978 9.57945 12.7786C9.3327 13.4593 8.57845 13.8111 7.8977 13.5626L4.52195 12.3341C3.8412 12.0873 3.48945 11.3331 3.73795 10.6523C3.9847 9.97157 4.73895 9.61982 5.4197 9.86832L8.79545 11.0968Z" fill="#F0631C"/>
<path id="Vector_5" fill-rule="evenodd" clip-rule="evenodd" d="M8.76037 16.2222C9.41662 15.9159 10.1989 16.2012 10.5051 16.8574C10.8114 17.5137 10.5261 18.2959 9.86987 18.6022L6.61487 20.1194C5.95862 20.4257 5.17637 20.1422 4.87012 19.4859C4.56387 18.8279 4.84912 18.0474 5.50537 17.7412L8.76037 16.2222Z" fill="#F0631C"/>
<path id="Vector_6" fill-rule="evenodd" clip-rule="evenodd" d="M25.0387 8.63262C25.6949 8.32637 26.4772 8.60987 26.7834 9.26787C27.0897 9.92412 26.8044 10.7046 26.1482 11.0109L22.8932 12.5299C22.2369 12.8361 21.4547 12.5509 21.1484 11.8946C20.8422 11.2384 21.1274 10.4561 21.7837 10.1499L25.0387 8.63262Z" fill="#F0631C"/>
</g>
</g>
</svg>
