<svg width="48" height="48" viewBox="0 0 48 48" fill="none" xmlns="http://www.w3.org/2000/svg">
<path d="M41.7908 23.5815C40.0752 25.0469 37.8931 25.852 35.6369 25.8523C35.4708 25.8523 35.3169 25.8523 35.1631 25.8523C36.4727 27.7892 37.1715 30.0742 37.1692 32.4123V39.44H47.0769V32.4123C47.077 30.5999 46.5854 28.8213 45.6545 27.2662C44.7236 25.7111 43.3883 24.4377 41.7908 23.5815Z" fill="#6B48F2"/>
<path d="M31.3846 22.3076C31.2862 22.4307 31.1938 22.5415 31.0892 22.6522C32.4065 23.6063 33.992 24.1189 35.6185 24.1168C36.6579 24.1461 37.6927 23.9666 38.6617 23.589C39.6306 23.2114 40.5139 22.6434 41.2595 21.9185C42.0051 21.1936 42.5978 20.3265 43.0025 19.3686C43.4072 18.4107 43.6157 17.3813 43.6157 16.3414C43.6157 15.3016 43.4072 14.2722 43.0025 13.3143C42.5978 12.3564 42.0051 11.4893 41.2595 10.7644C40.5139 10.0395 39.6306 9.47149 38.6617 9.0939C37.6927 8.7163 36.6579 8.53682 35.6185 8.56607C33.9921 8.5648 32.4069 9.0774 31.0892 10.0307C32.5947 11.7116 33.4515 13.8742 33.5057 16.1301C33.5598 18.386 32.8078 20.5872 31.3846 22.3384V22.3076Z" fill="#6B48F2"/>
<path d="M12.3631 25.846C10.1069 25.8457 7.92483 25.0405 6.20925 23.5752C4.61083 24.4318 3.2749 25.7062 2.34394 27.2625C1.41298 28.8188 0.921906 30.5986 0.923098 32.4121V39.4398H10.8308V32.4121C10.8273 30.072 11.5262 27.7846 12.8369 25.846C12.6831 25.846 12.5293 25.846 12.3631 25.846Z" fill="#6B48F2"/>
<path d="M12.3632 24.117C13.9897 24.1191 15.5751 23.6064 16.8924 22.6523C16.7878 22.5416 16.6955 22.4308 16.597 22.3077C15.1821 20.5589 14.435 18.3639 14.4891 16.115C14.5432 13.8661 15.395 11.7096 16.8924 10.0308C15.7315 9.1966 14.3629 8.69875 12.9374 8.59201C11.5118 8.48527 10.0844 8.77377 8.81215 9.42579C7.53992 10.0778 6.47217 11.0681 5.72633 12.2877C4.9805 13.5073 4.58548 14.9089 4.58472 16.3385C4.58797 18.4005 5.40853 20.3771 6.86657 21.8351C8.32461 23.2931 10.3012 24.1137 12.3632 24.117Z" fill="#6B48F2"/>
<path d="M30.1539 23.5752C28.4382 25.0402 26.2561 25.845 24.0001 25.845C21.744 25.845 19.5619 25.0402 17.8462 23.5752C16.2505 24.4334 14.9166 25.7073 13.986 27.262C13.0553 28.8166 12.5626 30.5941 12.5601 32.406V39.4337H35.4401V32.406C35.4375 30.5941 34.9448 28.8166 34.0142 27.262C33.0835 25.7073 31.7497 24.4334 30.1539 23.5752Z" fill="#6B48F2"/>
<path d="M23.9999 24.117C25.5379 24.1158 27.0409 23.6587 28.3191 22.8035C29.5973 21.9483 30.5934 20.7334 31.1813 19.3124C31.7693 17.8913 31.9228 16.3278 31.6225 14.8195C31.3222 13.3112 30.5815 11.9258 29.494 10.8383C28.4065 9.75085 27.0211 9.01015 25.5128 8.70982C24.0045 8.40949 22.441 8.56301 21.0199 9.15098C19.5989 9.73896 18.384 10.735 17.5288 12.0132C16.6736 13.2914 16.2165 14.7945 16.2153 16.3324C16.2186 18.396 17.0398 20.3741 18.499 21.8333C19.9582 23.2925 21.9363 24.1137 23.9999 24.117Z" fill="#6B48F2"/>
</svg>
