<svg width="48" height="48" viewBox="0 0 48 48" fill="none" xmlns="http://www.w3.org/2000/svg">
<path d="M30.5077 42.7501H30.2765V39.2251H17.7959V42.7501H17.5648C15.0225 42.7501 12.9424 44.7751 12.9424 47.2501C12.9424 47.6251 13.2505 48.0001 13.7128 48.0001H34.3597C34.8219 48.0001 35.1301 47.6251 35.1301 47.2501C35.1301 44.7751 33.05 42.7501 30.5077 42.7501Z" fill="#6B48F2"/>
<path d="M45.6081 0H2.4653C1.07857 0 0 1.05 0 2.32501V35.3251C0 36.6001 1.07857 37.6501 2.38826 37.6501H45.6081C46.9178 37.6501 47.9964 36.6001 47.9964 35.3251V2.32501C48.0734 1.05 46.9178 0 45.6081 0ZM40.7545 34.4251H34.4372C33.9749 34.4251 33.6668 34.0501 33.6668 33.6751C33.6668 33.3001 33.9749 32.9251 34.4372 32.9251H40.7545C41.2168 32.9251 41.5249 33.3001 41.5249 33.6751C41.5249 34.0501 41.1397 34.4251 40.7545 34.4251ZM46.5326 29.4751H1.54081V2.32501C1.54081 1.87501 1.92602 1.5 2.4653 1.5H45.6081C46.0703 1.5 46.4555 1.87501 46.4555 2.32501V29.4751H46.5326Z" fill="#6B48F2"/>
<path d="M24.8844 13.1254L22.7273 12.6754C22.6502 12.4504 22.5732 12.2254 22.4962 12.0004L24.037 10.3504C24.2681 10.1254 24.2681 9.75041 24.037 9.5254L21.7258 6.9754C21.4946 6.7504 21.1094 6.6754 20.8783 6.8254L19.0293 8.0254C18.5671 7.7254 18.0278 7.5004 17.4885 7.3504L17.1804 5.17539C17.1033 4.87539 16.8722 4.65039 16.564 4.65039H13.1742C12.8661 4.65039 12.5579 4.87539 12.5579 5.17539L12.2498 7.3504C12.0186 7.4254 11.7875 7.5004 11.5564 7.6504L9.86149 6.3004C9.63037 6.07539 9.24517 6.07539 9.01404 6.3004L6.54874 8.6254C6.31762 8.8504 6.24058 9.2254 6.4717 9.4504L7.78139 11.2504C7.70435 11.4754 7.55027 11.7004 7.47323 11.9254L5.23905 12.0754C4.93089 12.0754 4.62272 12.3754 4.62272 12.6754L4.3916 16.0504C4.3916 16.3504 4.62272 16.6504 4.93089 16.7254L7.08803 17.1004C7.16507 17.3254 7.24211 17.5504 7.31915 17.7754L5.77833 19.4254C5.54721 19.6504 5.54721 20.0254 5.77833 20.2504L8.01251 22.8004C8.24364 23.0254 8.62884 23.1004 8.85996 22.9504L10.7089 21.7504C11.1712 22.0504 11.7105 22.2754 12.2498 22.4254L12.5579 24.6004C12.635 24.9004 12.8661 25.1254 13.1742 25.1254H16.564C16.8722 25.1254 17.1804 24.9004 17.1804 24.6004L17.4885 22.4254C17.7196 22.3504 17.9508 22.2754 18.1819 22.1254L19.8768 23.4754C20.1079 23.7004 20.4931 23.7004 20.7242 23.4754L23.1895 21.1504C23.4207 20.9254 23.4977 20.5504 23.2666 20.3254L21.9569 18.5254C22.111 18.3004 22.188 18.0754 22.265 17.8504L24.4992 17.7004C24.8074 17.7004 25.1156 17.4004 25.1156 17.1004L25.3467 13.7254C25.4237 13.4254 25.1926 13.1254 24.8844 13.1254ZM14.8691 21.6004C12.0186 21.6004 9.78445 19.3504 9.78445 16.5754C9.78445 13.8004 12.0957 11.5504 14.8691 11.5504C17.7196 11.5504 19.9538 13.8004 19.9538 16.5754C19.9538 19.3504 17.6426 21.6004 14.8691 21.6004Z" fill="#6B48F2"/>
<path d="M42.4496 18.8996L41.2169 18.6746C41.2169 18.5996 41.2169 18.5996 41.1399 18.5246L41.9873 17.6246C42.2185 17.3996 42.2185 16.9496 41.9873 16.7246L40.6006 14.9996C40.3695 14.6996 39.9843 14.6996 39.6761 14.8496L38.5975 15.5246C38.3664 15.3746 38.1353 15.2996 37.9042 15.2246L37.7501 13.9496C37.673 13.5746 37.3649 13.3496 37.0567 13.3496H34.8225C34.4373 13.3496 34.1292 13.5746 34.1292 13.9496L33.9751 15.2246C33.8981 15.2246 33.8981 15.2246 33.821 15.2996L32.8195 14.4746C32.5113 14.2496 32.1261 14.2496 31.895 14.4746L30.2771 15.9746C30.046 16.1996 29.969 16.5746 30.2001 16.8746L30.9705 17.9246C30.9705 17.9996 30.8935 17.9996 30.8935 18.0746L29.5838 18.1496C29.1986 18.1496 28.9675 18.4496 28.8904 18.8246L28.7363 20.9996C28.7363 21.3746 28.9675 21.6746 29.3527 21.7496L30.5853 21.9746C30.5853 22.0496 30.5853 22.0496 30.6623 22.1246L29.8149 23.0246C29.5838 23.2496 29.5838 23.6996 29.8149 23.9246L31.2787 25.5746C31.5098 25.8746 31.895 25.8746 32.2032 25.7246L33.2817 25.0496C33.5129 25.1996 33.744 25.2746 33.9751 25.3496L34.1292 26.6246C34.2062 26.9996 34.5144 27.2246 34.8225 27.2246H37.0567C37.4419 27.2246 37.7501 26.9996 37.7501 26.6246L37.9042 25.3496C37.9812 25.3496 37.9812 25.3496 38.0583 25.2746L39.0598 26.0996C39.3679 26.3246 39.7531 26.3246 39.9843 26.0996L41.6021 24.5996C41.8332 24.3746 41.9103 23.9996 41.6792 23.6996L40.9088 22.6496C40.9088 22.5746 40.9858 22.5746 40.9858 22.4996L42.2184 22.4246C42.6037 22.4246 42.8348 22.1246 42.9118 21.7496L43.0659 19.5746C43.0659 19.2746 42.8348 18.9746 42.4496 18.8996ZM35.9011 22.5746C34.5914 22.5746 33.5899 21.5246 33.5899 20.2496C33.5899 18.9746 34.6685 17.9246 35.9011 17.9246C37.2108 17.9246 38.2123 18.9746 38.2123 20.2496C38.2123 21.5996 37.2108 22.5746 35.9011 22.5746Z" fill="#6B48F2"/>
</svg>
