<svg width="30" height="38" viewBox="0 0 30 38" fill="none" xmlns="http://www.w3.org/2000/svg">
<path d="M29.1688 22.2485C28.7335 16.5812 26.0949 13.0298 23.7671 9.8958C21.6116 6.99444 19.75 4.48897 19.75 0.793023C19.75 0.496148 19.5837 0.224804 19.3201 0.0887609C19.0557 -0.0480984 18.738 -0.0256844 18.4976 0.149027C15.0016 2.65064 12.0846 6.86694 11.0657 10.8899C10.3583 13.6907 10.2647 16.8393 10.2516 18.9189C7.02304 18.2293 6.29169 13.4 6.28397 13.3474C6.24761 13.0969 6.09457 12.879 5.87191 12.7599C5.64695 12.6424 5.38251 12.6339 5.15444 12.7468C4.98514 12.8287 0.998929 14.8541 0.766996 22.9411C0.750742 23.2101 0.75 23.48 0.75 23.7498C0.75 31.6063 7.14283 37.9988 15 37.9988C15.0108 37.9995 15.0224 38.0011 15.0317 37.9988C15.0348 37.9988 15.0379 37.9988 15.0417 37.9988C22.8796 37.9763 29.25 31.5925 29.25 23.7498C29.25 23.3547 29.1688 22.2485 29.1688 22.2485ZM15 36.4156C12.3807 36.4156 10.25 34.1459 10.25 31.3559C10.25 31.2609 10.2493 31.165 10.2562 31.0475C10.2879 29.8709 10.5113 29.0677 10.7564 28.5335C11.2157 29.5199 12.0367 30.4267 13.3703 30.4267C13.8079 30.4267 14.162 30.0726 14.162 29.6351C14.162 28.508 14.1852 27.2077 14.4658 26.0342C14.7156 24.9936 15.3124 23.8866 16.0685 22.9991C16.4048 24.151 17.0605 25.0833 17.7006 25.9932C18.6168 27.295 19.5638 28.6409 19.73 30.9362C19.7401 31.0722 19.7501 31.2091 19.7501 31.3559C19.75 34.1458 17.6193 36.4156 15 36.4156Z" fill="#F0631C"/>
</svg>
