<svg width="48" height="48" viewBox="0 0 48 48" fill="none" xmlns="http://www.w3.org/2000/svg">
<path d="M1.3335 31.0591H6.6665C7.40283 31.0591 8 31.6909 8 32.4705V46.5882C8 47.3678 7.40283 48.0001 6.6665 48.0001H1.3335C0.597168 48.0001 0 47.3678 0 46.5882V32.4705C0 31.6909 0.597168 31.0591 1.3335 31.0591Z" fill="#6B48F2"/>
<path d="M14.6665 19.7642H20C20.7363 19.7642 21.3335 20.3965 21.3335 21.1761V46.5877C21.3335 47.3673 20.7363 47.9996 20 47.9996H14.6665C13.9302 47.9996 13.3335 47.3673 13.3335 46.5877V21.1761C13.3335 20.3965 13.9302 19.7642 14.6665 19.7642Z" fill="#6B48F2"/>
<path d="M28 25.4116H33.3335C34.0698 25.4116 34.6665 26.0439 34.6665 26.8235V46.5879C34.6665 47.3676 34.0698 47.9999 33.3335 47.9999H28C27.2637 47.9999 26.6665 47.3676 26.6665 46.5879V26.8235C26.6665 26.0439 27.2637 25.4116 28 25.4116Z" fill="#6B48F2"/>
<path d="M41.3335 16.9409H46.6665C47.4028 16.9409 48 17.5732 48 18.3528V46.5878C48 47.3674 47.4028 47.9997 46.6665 47.9997H41.3335C40.5972 47.9997 40 47.3674 40 46.5878V18.3528C40 17.5732 40.5972 16.9409 41.3335 16.9409Z" fill="#6B48F2"/>
<path d="M44 0C41.792 0.00258499 40.0024 1.89739 40 4.23526C40.0054 4.69643 40.0825 5.15345 40.2285 5.58773L33.5537 9.78887C32.6777 8.80502 31.4077 8.32835 30.1421 8.50775C28.876 8.68715 27.7695 9.50091 27.1685 10.6941L21.2812 7.60662C21.3101 7.42515 21.3271 7.24213 21.3335 7.0586C21.3364 5.34423 20.3633 3.79736 18.8682 3.13922C17.373 2.4816 15.6509 2.84298 14.5059 4.05483C13.3604 5.26668 13.0181 7.08962 13.6387 8.67319L6.00195 14.7076C5.39648 14.3255 4.70508 14.1219 4 14.1177C1.79102 14.1177 0 16.0136 0 18.353C0 20.6919 1.79102 22.5882 4 22.5882C6.20898 22.5882 8 20.6919 8 18.353C7.99658 17.8432 7.90576 17.3391 7.73193 16.864L15.4448 10.7691C16.9536 11.6599 18.8354 11.3988 20.0762 10.126L26.771 13.6369C27.2173 15.7416 29.0879 17.1541 31.1128 16.9152C33.1377 16.6763 34.6689 14.8632 34.6665 12.7058C34.6665 12.5983 34.644 12.4969 34.6367 12.3915L41.8965 7.82169C42.5259 8.24304 43.2549 8.46794 44 8.47052C46.209 8.47052 48 6.57417 48 4.23526C48 1.89636 46.209 0 44 0Z" fill="#6B48F2"/>
</svg>
