<svg width="48" height="48" viewBox="0 0 48 48" fill="none" xmlns="http://www.w3.org/2000/svg">
<g id="Frame 48098119">
<g id="Layer_14">
<path id="Vector" d="M25.394 7.48713L43.6295 18.0831C44.339 18.4956 44.339 19.5186 43.6295 19.9311L25.394 30.5271C24.2735 31.1781 22.8905 31.1781 21.7715 30.5271L3.53603 19.9311C2.82653 19.5186 2.82653 18.4956 3.53603 18.0831L21.7715 7.48713C22.8905 6.83763 24.2735 6.83763 25.394 7.48713Z" fill="#F0631C"/>
<path id="Vector_2" d="M25.394 7.48713L43.6295 18.0831C44.339 18.4956 44.339 19.5186 43.6295 19.9311L25.394 30.5271C24.2735 31.1781 22.8905 31.1781 21.7715 30.5271L3.53603 19.9311C2.82653 19.5186 2.82653 18.4956 3.53603 18.0831L21.7715 7.48713C22.8905 6.83763 24.2735 6.83763 25.394 7.48713Z" fill="#F0631C"/>
<path id="Vector_3" d="M43.6237 19.9377L37.4288 23.5377L25.3988 30.5277C24.2738 31.1727 22.8938 31.1727 21.7688 30.5277L9.73875 23.5377L3.52875 19.9377C2.82375 19.5177 2.82375 18.4977 3.52875 18.0777L21.7688 7.48766C22.8938 6.84266 24.2738 6.84266 25.3988 7.48766L43.6237 18.0777C44.3438 18.4977 44.3438 19.5177 43.6237 19.9377Z" fill="#F0631C"/>
<path id="Vector_4" d="M26.5293 32.4736C25.6248 32.9911 24.6108 33.2626 23.5833 33.2626C22.5558 33.2626 21.5418 32.9911 20.6493 32.4811L9.73828 26.1406V31.7731C9.73828 33.0331 10.3983 34.1881 11.4933 34.8181L19.0983 39.2131C21.8733 40.8031 25.2933 40.8031 28.0533 39.2131L35.6733 34.8181C36.7533 34.1881 37.4283 33.0331 37.4283 31.7731V26.1406L26.5293 32.4736Z" fill="#F0631C"/>
<path id="Vector_5" d="M43.9522 33.7646V22.3496L41.2507 23.9186V33.7631C40.6162 34.1951 40.1992 34.9226 40.1992 35.7476C40.1992 37.0736 41.2747 38.1491 42.6007 38.1491C43.9267 38.1491 45.0022 37.0751 45.0022 35.7491C45.0022 34.9241 44.5852 34.1981 43.9522 33.7646Z" fill="#F0631C"/>
</g>
</g>
</svg>
