<svg width="48" height="48" viewBox="0 0 48 48" fill="none" xmlns="http://www.w3.org/2000/svg">
<path d="M16.8187 41.9633C17.6844 42.7906 18.578 43.6441 19.4971 44.529C19.5034 44.535 19.5098 44.5412 19.5162 44.5472L22.574 47.4222C22.9837 47.8074 23.4922 48 24.0007 48C24.5091 48 25.0177 47.8073 25.4274 47.4222L28.4847 44.5472C28.4911 44.5412 28.4973 44.5352 28.5036 44.5291C34.5568 38.7023 39.0952 34.2414 42.3787 29.8907C46.2137 24.8094 48 20.215 48 15.432C48 6.77844 41.7725 2.77449e-09 33.8225 2.77449e-09C30.2494 2.77449e-09 26.7189 1.46448 24.0007 4.00309C21.2817 1.46432 17.7512 2.77449e-09 14.1779 2.77449e-09C6.22767 -0.000158353 0 6.77844 0 15.4318C0 25.892 6.69089 32.2855 16.8187 41.9633ZM15.2708 19.2495H21.0901V12.9151H26.9096V19.2495H32.7291V25.5837H26.9096V31.9178H21.0901V25.5837H15.2708V19.2495Z" fill="#6B48F2"/>
</svg>
