<svg width="48" height="48" viewBox="0 0 48 48" fill="none" xmlns="http://www.w3.org/2000/svg">
<path d="M0 41.3396C0 45.0198 2.98122 47.9999 6.64279 47.9999H41.3572C45.0188 47.9999 48 45.0198 48 41.3396V16.6987H0V41.3396ZM30.6929 33.7794C29.8925 32.9793 29.8925 31.7192 30.6929 30.9393C31.4532 30.1592 32.7336 30.1592 33.4939 30.9393L37.2756 34.7194C38.0559 35.4994 38.0559 36.7595 37.2756 37.5395L33.4939 41.3197C32.7429 42.1122 31.4036 42.0697 30.6929 41.3197C29.8925 40.5397 29.8925 39.2796 30.6929 38.4795L33.0338 36.1194L30.6929 33.7794ZM18.8879 39.3197L25.9709 23.7389C26.4311 22.7189 27.6315 22.2789 28.652 22.7389C29.6524 23.199 30.0926 24.379 29.6324 25.399L22.5094 40.9796C22.0835 41.9643 20.8801 42.4651 19.8683 41.9598C18.8679 41.5197 18.4077 40.3197 18.8879 39.3197ZM10.7244 27.3591L14.486 23.579C15.2664 22.799 16.5269 22.799 17.3273 23.579C18.1075 24.359 18.1075 25.639 17.3273 26.4191L14.9463 28.7592L17.3273 31.1393C18.1075 31.9193 18.1075 33.1794 17.3273 33.9594C16.5388 34.7098 15.3272 34.7579 14.486 33.9594L10.7244 30.1793C9.92418 29.3992 9.92418 28.1391 10.7244 27.3591Z" fill="#6B48F2"/>
<path d="M41.3572 0H6.64279C2.98122 0 0 2.9801 0 6.64029V12.7006H48V6.64029C48 2.9801 45.0188 0 41.3572 0ZM6.0025 8.34031H5.98248C4.88204 8.34031 3.98164 7.44037 3.98164 6.34023C3.98164 5.26022 4.88204 4.34014 5.98248 4.34014C7.10294 4.34014 7.98331 5.26022 7.98331 6.34023C7.98331 7.44037 7.10294 8.34031 6.0025 8.34031ZM12.6052 8.34031C11.4848 8.34031 10.6044 7.44037 10.6044 6.34023C10.6044 5.26022 11.4848 4.34014 12.6052 4.34014C13.7058 4.34014 14.6061 5.26022 14.6061 6.34023C14.6061 7.44037 13.7058 8.34031 12.6052 8.34031ZM19.6082 8.34031C18.4877 8.34031 17.6073 7.44037 17.6073 6.34023C17.6073 5.26022 18.4877 4.34014 19.6082 4.34014C20.7087 4.34014 21.609 5.26022 21.609 6.34023C21.609 7.44037 20.7087 8.34031 19.6082 8.34031Z" fill="#6B48F2"/>
</svg>
