<svg width="48" height="48" viewBox="0 0 48 48" fill="none" xmlns="http://www.w3.org/2000/svg">
<path d="M45.2074 12.2012H29.8899V25.0712C29.8899 27.9028 27.9643 30.2056 25.5981 30.2056H19.6123V37.2755C19.6123 39.1157 20.8648 40.6134 22.4041 40.6134H33.1767C33.3474 40.6134 33.5133 40.6831 33.6464 40.811L41.1256 48V41.5116C41.1256 41.0154 41.4613 40.6134 41.8756 40.6134H45.2084C46.7477 40.6134 48.0002 39.1157 48.0002 37.2755V15.5391C47.9993 13.6989 46.7468 12.2012 45.2074 12.2012ZM38.4819 34.2553C38.0938 34.4305 37.6616 34.1958 37.5154 33.731L36.4926 30.4818H31.118L30.0952 33.731C29.9818 34.0903 29.6968 34.3126 29.3931 34.3126C29.3049 34.3126 29.2159 34.2935 29.1287 34.2542C28.7415 34.079 28.5456 33.5615 28.6918 33.0966L33.1045 19.0814C33.2142 18.7322 33.4945 18.4998 33.8067 18.4998C34.1189 18.4998 34.3983 18.7311 34.508 19.0814L38.9179 33.0966C39.0651 33.5626 38.8691 34.0802 38.4819 34.2553Z" fill="#6B48F2"/>
<path d="M31.6851 28.6861H35.9281L33.8066 21.9463L31.6851 28.6861Z" fill="#6B48F2"/>
<path d="M28.3898 25.071V3.33793C28.3898 1.49775 27.1373 0 25.5979 0H2.79182C1.25248 0 0 1.49775 0 3.33793V25.071C0 26.9112 1.25248 28.4089 2.79182 28.4089H6.12738C6.54175 28.4089 6.87737 28.8108 6.87737 29.3071V35.7955L14.3566 28.6065C14.4897 28.4785 14.6557 28.4089 14.8263 28.4089H25.5989C27.1373 28.4089 28.3898 26.9112 28.3898 25.071ZM19.5249 21.0953C19.044 21.4097 18.5181 21.7038 17.9321 21.7229C17.9134 21.7241 17.8946 21.7241 17.875 21.7241C17.2534 21.7241 16.2025 21.3468 14.201 18.5545C13.2232 19.8704 12.1676 21.028 11.0857 21.9441C10.9545 22.0553 10.8026 22.1092 10.6535 22.1092C10.4182 22.1092 10.1867 21.9767 10.0404 21.7297C9.80137 21.3244 9.88106 20.7641 10.2195 20.4778C11.2723 19.5852 12.2998 18.4445 13.2457 17.1421C12.4291 15.8667 11.7251 14.5991 11.3895 13.8682C11.1898 13.4337 11.3229 12.8869 11.6857 12.6489C12.0485 12.4109 12.5051 12.5692 12.7038 13.0048C12.9476 13.5359 13.51 14.5744 14.216 15.7039C15.1347 14.2398 15.9447 12.6343 16.585 10.9816H9.22482C8.81045 10.9816 8.47483 10.5797 8.47483 10.0834C8.47483 9.58715 8.81045 9.1852 9.22482 9.1852H13.4454V7.19682C13.4454 6.70056 13.781 6.29862 14.1953 6.29862C14.6097 6.29862 14.9453 6.70056 14.9453 7.19682V9.1852H17.709H17.7109H19.1668C19.5812 9.1852 19.9168 9.58715 19.9168 10.0834C19.9168 10.5797 19.5812 10.9816 19.1668 10.9816H18.2284C17.4578 13.1496 16.4012 15.2683 15.1769 17.1533C15.1863 17.1668 15.1966 17.1814 15.206 17.196C17.125 19.9232 17.8609 19.9299 17.8909 19.9288C18.1459 19.9209 18.4412 19.7592 18.8068 19.5201C19.1706 19.2821 19.6262 19.4426 19.8249 19.8783C20.0218 20.3116 19.8877 20.8573 19.5249 21.0953Z" fill="#6B48F2"/>
</svg>
