<svg width="32" height="32" viewBox="0 0 32 32" fill="none" xmlns="http://www.w3.org/2000/svg">
<g clip-path="url(#clip0_1572_27437)">
<path d="M27.4933 11.2673C26.0933 5.10732 20.72 2.33398 16 2.33398C16 2.33398 16 2.33398 15.9867 2.33398C11.28 2.33398 5.89334 5.09398 4.49334 11.254C2.93334 18.134 7.14667 23.9606 10.96 27.6273C12.3733 28.9873 14.1867 29.6673 16 29.6673C17.8133 29.6673 19.6267 28.9873 21.0267 27.6273C24.84 23.9606 29.0533 18.1473 27.4933 11.2673ZM16 17.9473C13.68 17.9473 11.8 16.0673 11.8 13.7473C11.8 11.4273 13.68 9.54732 16 9.54732C18.32 9.54732 20.2 11.4273 20.2 13.7473C20.2 16.0673 18.32 17.9473 16 17.9473Z" fill="black"/>
</g>
<defs>
<clipPath id="clip0_1572_27437">
<rect width="32" height="32" fill="white"/>
</clipPath>
</defs>
</svg>
