<svg width="40" height="40" viewBox="0 0 40 40" fill="none" xmlns="http://www.w3.org/2000/svg">
<path d="M19.8979 16.0987C23.3397 16.0987 26.1298 13.21 26.1298 9.64653C26.1298 6.08308 23.3397 3.19434 19.8979 3.19434C16.4562 3.19434 13.6661 6.08308 13.6661 9.64653C13.6661 13.21 16.4562 16.0987 19.8979 16.0987Z" fill="#6B48F2"/>
<path d="M8.99971 25.7596C8.60886 25.5583 8.28943 25.7616 8.28943 26.2136V30.1165C8.28943 30.5684 8.60886 31.1025 8.99971 31.3059L12.936 33.3436C13.3269 33.5449 13.6463 34.0811 13.6463 34.533V37.5116C13.6463 37.9635 14.0034 38.3333 14.4399 38.3333H18.2095C18.646 38.3333 19.0031 37.9635 19.0031 37.5116V31.7599C19.0031 31.3079 18.6837 30.7739 18.2929 30.5705L8.99971 25.7596Z" fill="#6B48F2"/>
<path d="M31.5044 26.2135C31.5044 25.7615 31.185 25.5561 30.7941 25.7595L21.501 30.5704C21.1101 30.7717 20.7907 31.3078 20.7907 31.7598V37.5115C20.7907 37.9634 21.1478 38.3332 21.5843 38.3332H25.354C25.7904 38.3332 26.1476 37.9634 26.1476 37.5115V34.5329C26.1476 34.081 26.467 33.5469 26.8578 33.3435L30.7941 31.3058C31.185 31.1045 31.5044 30.5683 31.5044 30.1164V26.2135Z" fill="#6B48F2"/>
<path d="M33.7742 13.0976C33.5123 12.7361 32.9746 12.5984 32.5818 12.7915L20.7173 18.6131C20.3225 18.8062 19.6777 18.8062 19.2829 18.6131L7.41846 12.7915C7.02364 12.5984 6.48796 12.7361 6.22607 13.0976L1.80964 19.1965C1.54775 19.558 1.65489 20.014 2.04971 20.2092L19.2849 28.7361C19.6777 28.9313 20.3225 28.9313 20.7173 28.7361L37.9525 20.2092C38.3454 20.014 38.4545 19.5601 38.1926 19.1965L33.7762 13.0976H33.7742Z" fill="#6B48F2"/>
</svg>
