<svg width="43" height="42" viewBox="0 0 43 42" fill="none" xmlns="http://www.w3.org/2000/svg">
<g id="arrows 1">
<path id="Vector" d="M11.7022 23.7453V19.5341C11.7022 19.3432 11.5926 19.1699 11.42 19.0885C11.2481 19.0078 11.044 19.0334 10.897 19.1548L2.15506 26.3729C2.04219 26.4661 1.97656 26.6052 1.97656 26.7522C1.97656 26.8992 2.04219 27.0384 2.15506 27.1315L10.8963 34.3503C11.0433 34.4724 11.2474 34.4973 11.4193 34.4166C11.5919 34.3352 11.7015 34.162 11.7015 33.971V30.0676C15.5478 30.8951 18.3822 34.3477 18.3822 38.3239V40.0262C18.3822 40.2979 18.6027 40.5184 18.8743 40.5184H24.1243C24.396 40.5184 24.6165 40.2979 24.6165 40.0262V38.3239C24.6165 30.947 18.9793 24.6293 11.7015 23.7446L11.7022 23.7453Z" fill="#F0631C"/>
<path id="Vector_2" d="M40.8449 19.9153L32.1037 12.6966C31.956 12.5752 31.7526 12.5496 31.5806 12.6303C31.408 12.7117 31.2984 12.8849 31.2984 13.0759V17.2208C28.9097 17.3743 26.6253 18.1454 24.6178 19.4717V11.1984H28.7194C28.9103 11.1984 29.0836 11.0888 29.165 10.9162C29.2463 10.7436 29.2201 10.5402 29.0987 10.3932L21.8793 1.65125C21.6929 1.42484 21.307 1.42484 21.1207 1.65125L13.9019 10.3925C13.7805 10.5395 13.7549 10.7436 13.8356 10.9155C13.917 11.0881 14.0902 11.1977 14.2812 11.1977H18.3828V25.1726C21.2191 27.014 23.4274 29.7289 24.6172 32.9058V30.983C24.6172 27.121 27.5125 23.9172 31.2978 23.4748V27.5134C31.2978 27.7044 31.4074 27.8776 31.58 27.959C31.7526 28.0404 31.956 28.0148 32.103 27.8927L40.8442 20.674C40.9571 20.5808 41.0227 20.4417 41.0227 20.2947C41.0227 20.1477 40.9578 20.0085 40.8449 19.9153Z" fill="#F0631C"/>
</g>
</svg>
