<svg width="48" height="48" viewBox="0 0 48 48" fill="none" xmlns="http://www.w3.org/2000/svg">
<path d="M46.9171 18.3318C46.5783 17.4478 46.2012 16.585 45.7873 15.7466L40.4556 32.8212C40.2522 33.4592 39.9565 34.0507 39.5815 34.5693C41.0127 34.4023 42.3918 33.8479 43.6114 32.9492C44.8309 32.0505 45.8579 30.8319 46.6123 29.3884C47.3666 27.9448 47.828 26.3154 47.9604 24.6271C48.0928 22.9388 47.8926 21.2373 47.3755 19.6552C47.2335 19.2046 47.0811 18.7663 46.9171 18.3318Z" fill="#6B48F2"/>
<path d="M16.3154 2.94377C13.2043 4.24935 10.3487 6.28156 7.91938 8.91874C5.49009 11.5559 3.53714 14.7439 2.17741 18.2917C0.817689 21.8396 0.0791553 25.6744 0.00602095 29.5666C-0.0671134 33.4588 0.526656 37.3285 1.75178 40.9438C1.78416 41.0214 1.80608 41.0977 1.83845 41.1753C2.48932 43.0077 3.549 44.5981 4.90495 45.7776C6.2609 46.9571 7.86249 47.6817 9.53965 47.8743C11.2168 48.067 12.9069 47.7205 14.4305 46.8718C15.9541 46.0231 17.2542 44.7037 18.1929 43.0538C20.1561 39.5674 22.9745 36.8696 26.272 35.3204C26.3764 35.2711 26.4808 35.2342 26.5852 35.1887C26.9565 34.1789 27.5089 33.2761 28.2046 32.5422C28.9002 31.8084 29.7225 31.261 30.6148 30.9378C30.5931 30.0107 30.7543 29.0904 31.0858 28.2492L39.3351 7.18966C36.0947 4.29382 32.296 2.39024 28.2787 1.64928C24.2615 0.908313 20.1511 1.35308 16.3154 2.94377ZM9.91439 35.0742C9.08828 35.0742 8.28074 34.7854 7.59386 34.2443C6.90698 33.7032 6.37162 32.9342 6.05548 32.0344C5.73935 31.1346 5.65663 30.1445 5.8178 29.1893C5.97896 28.2341 6.37677 27.3567 6.96091 26.668C7.54505 25.9794 8.2893 25.5104 9.09952 25.3204C9.90975 25.1304 10.7496 25.2279 11.5128 25.6006C12.276 25.9733 12.9284 26.6045 13.3873 27.4142C13.8463 28.224 14.0912 29.1761 14.0912 30.15C14.0912 31.456 13.6512 32.7084 12.8679 33.6319C12.0846 34.5554 11.0222 35.0742 9.91439 35.0742ZM15.1354 20.9171C14.3093 20.9171 13.5018 20.6283 12.8149 20.0872C12.128 19.5461 11.5927 18.7771 11.2765 17.8773C10.9604 16.9775 10.8777 15.9874 11.0389 15.0322C11.2 14.077 11.5978 13.1996 12.182 12.511C12.7661 11.8223 13.5104 11.3533 14.3206 11.1633C15.1308 10.9733 15.9706 11.0708 16.7339 11.4435C17.4971 11.8162 18.1494 12.4474 18.6084 13.2572C19.0673 14.0669 19.3123 15.019 19.3123 15.9929C19.3123 17.2989 18.8722 18.5514 18.0889 19.4748C17.3056 20.3983 16.2432 20.9171 15.1354 20.9171ZM27.666 16.6084C26.8399 16.6084 26.0323 16.3196 25.3455 15.7785C24.6586 15.2375 24.1232 14.4684 23.8071 13.5686C23.4909 12.6689 23.4082 11.6788 23.5694 10.7236C23.7306 9.76836 24.1284 8.89095 24.7125 8.20229C25.2967 7.51363 26.0409 7.04465 26.8511 6.85464C27.6614 6.66464 28.5012 6.76216 29.2644 7.13486C30.0276 7.50756 30.68 8.13871 31.1389 8.94849C31.5979 9.75827 31.8428 10.7103 31.8428 11.6842C31.8428 12.9902 31.4028 14.2427 30.6195 15.1662C29.8362 16.0896 28.7738 16.6084 27.666 16.6084Z" fill="#6B48F2"/>
<path d="M46.4389 0.174952C45.9756 -0.0519138 45.4557 -0.0583739 44.9885 0.156928C44.5212 0.372229 44.1428 0.792552 43.9328 1.32968L32.9853 29.2807C32.7332 29.9236 32.6517 30.6413 32.7513 31.3398C32.851 32.0383 33.1273 32.6851 33.5439 33.1954C32.5263 32.914 31.4569 33.0678 30.5265 33.6294C29.5961 34.1911 28.8651 35.124 28.4638 36.2619C26.7733 41.0753 29.4475 43.1866 27.7559 48C29.6843 47.746 31.5214 46.8946 33.0804 45.5324C34.6393 44.1702 35.8646 42.3457 36.6317 40.2444C36.9928 39.2096 37.0609 38.065 36.8257 36.981C36.5905 35.897 36.0646 34.9315 35.3264 34.2282C35.994 34.3297 36.6711 34.1613 37.2471 33.7506C37.8231 33.3398 38.2639 32.711 38.4977 31.9668L47.5197 3.07284C47.691 2.5187 47.6742 1.90798 47.4728 1.36806C47.2715 0.828142 46.9011 0.400722 46.4389 0.174952Z" fill="#6B48F2"/>
</svg>
