<svg width="48" height="48" viewBox="0 0 48 48" fill="none" xmlns="http://www.w3.org/2000/svg">
<path fill-rule="evenodd" clip-rule="evenodd" d="M33.3023 37.5359C33.2502 37.4523 33.1822 37.3797 33.102 37.3224C33.0219 37.2652 32.9313 37.2242 32.8353 37.2019C32.7394 37.1797 32.64 37.1765 32.5428 37.1927C32.4456 37.2089 32.3526 37.244 32.269 37.2961C29.7865 38.8385 26.9221 39.6559 23.9994 39.6559C21.0768 39.6559 18.2124 38.8385 15.7298 37.2961C15.6462 37.244 15.5532 37.2089 15.456 37.1928C15.3588 37.1766 15.2594 37.1798 15.1634 37.2021C15.0674 37.2243 14.9768 37.2653 14.8967 37.3226C14.8165 37.3799 14.7485 37.4525 14.6964 37.5361C14.6442 37.6197 14.6091 37.7128 14.593 37.81C14.5768 37.9071 14.58 38.0066 14.6023 38.1025C14.6246 38.1985 14.6655 38.2891 14.7228 38.3693C14.7802 38.4494 14.8527 38.5175 14.9363 38.5696C17.1429 39.944 19.6339 40.7969 22.2197 41.0634C21.481 41.8662 20.9856 43.11 20.855 44.329C20.6545 46.2027 21.3627 47.5486 22.7037 47.8454C23.5551 48.0515 24.4435 48.0515 25.2949 47.8454C26.6414 47.5472 27.3531 46.2035 27.153 44.3352C27.0218 43.1131 26.5249 41.8662 25.7828 41.0625C28.3675 40.7955 30.8571 39.9426 33.0625 38.5687C33.1461 38.5166 33.2186 38.4485 33.2759 38.3684C33.3332 38.2883 33.3742 38.1976 33.3964 38.1017C33.4187 38.0057 33.4218 37.9063 33.4057 37.8092C33.3896 37.712 33.3544 37.619 33.3023 37.5354V37.5359ZM3.05859 27.1871C3.26076 27.1867 3.46277 27.1756 3.66377 27.1539C4.88585 27.0226 6.13249 26.5257 6.93633 25.7837C7.20335 28.3682 8.05626 30.8579 9.43017 33.0632C9.53539 33.232 9.70336 33.3521 9.89713 33.3971C10.0909 33.4421 10.2946 33.4083 10.4634 33.303C10.6322 33.1978 10.7524 33.0298 10.7973 32.8361C10.8423 32.6423 10.8085 32.4386 10.7032 32.2698C9.16085 29.7873 8.34347 26.9229 8.34347 24.0003C8.34347 21.0776 9.16085 18.2133 10.7032 15.7308C10.7554 15.6472 10.7905 15.5541 10.8066 15.457C10.8228 15.3598 10.8196 15.2604 10.7974 15.1645C10.7751 15.0685 10.7342 14.9779 10.6769 14.8977C10.6196 14.8176 10.5471 14.7496 10.4635 14.6975C10.3799 14.6454 10.2868 14.6102 10.1897 14.5941C10.0925 14.5779 9.99311 14.5811 9.89716 14.6033C9.80121 14.6256 9.71059 14.6666 9.63046 14.7238C9.55033 14.7811 9.48227 14.8536 9.43017 14.9372C8.05568 17.1436 7.20275 19.6345 6.93633 22.2203C6.13361 21.4817 4.88978 20.9864 3.67052 20.8558C1.79667 20.6555 0.450931 21.3636 0.154764 22.7047C-0.0515879 23.5561 -0.0515879 24.4444 0.154764 25.2958C0.419336 26.4918 1.50913 27.1871 3.05953 27.1871H3.05859ZM12.6526 26.5027L15.0085 27.0266C15.1458 27.4343 15.3109 27.8321 15.5025 28.2172L14.2067 30.2545C14.1151 30.3986 14.0754 30.5695 14.094 30.7392C14.1126 30.9088 14.1885 31.0671 14.3091 31.1878L16.8123 33.6911C16.933 33.8117 17.0911 33.8876 17.2607 33.9062C17.4303 33.9247 17.6012 33.8849 17.7451 33.7932L19.7825 32.4977C20.1676 32.6891 20.5653 32.8542 20.9727 32.9918L21.4968 35.3475C21.5339 35.514 21.6266 35.6629 21.7597 35.7696C21.8928 35.8763 22.0583 35.9344 22.2288 35.9344H25.7695C25.9401 35.9344 26.1056 35.8763 26.2387 35.7696C26.3718 35.6629 26.4645 35.514 26.5016 35.3475L27.0258 32.9912C27.4335 32.8537 27.8313 32.6886 28.2165 32.4971L30.2538 33.7926C30.3977 33.8843 30.5686 33.9241 30.7382 33.9055C30.9078 33.887 31.066 33.8111 31.1867 33.6905L33.6899 31.1873C33.8107 31.0666 33.8866 30.9083 33.9053 30.7386C33.9239 30.5689 33.8841 30.398 33.7924 30.254L32.4965 28.2167C32.6882 27.8316 32.8533 27.4337 32.9905 27.026L35.3463 26.5023C35.5129 26.4653 35.6619 26.3726 35.7686 26.2395C35.8754 26.1064 35.9336 25.9409 35.9336 25.7703V22.2296C35.9336 22.059 35.8754 21.8935 35.7686 21.7604C35.6619 21.6273 35.5129 21.5346 35.3463 21.4976L32.9904 20.974C32.8531 20.5663 32.6881 20.1684 32.4964 19.7833L33.7923 17.7455C33.8839 17.6016 33.9236 17.4307 33.905 17.2611C33.8863 17.0915 33.8105 16.9333 33.6898 16.8127L31.1866 14.3095C31.0659 14.1888 30.9077 14.113 30.7381 14.0944C30.5685 14.0758 30.3976 14.1156 30.2537 14.2073L28.2164 15.5028C27.8311 15.3114 27.4333 15.1463 27.0257 15.0087L26.5017 12.653C26.4647 12.4865 26.3719 12.3376 26.2388 12.2309C26.1057 12.1242 25.9402 12.066 25.7696 12.066H22.229C22.0584 12.066 21.893 12.1242 21.7599 12.2309C21.6268 12.3376 21.5341 12.4865 21.497 12.653L20.9729 15.0087C20.5655 15.1464 20.1679 15.3115 19.7827 15.5028L17.7453 14.2073C17.6013 14.1157 17.4305 14.0759 17.2609 14.0945C17.0914 14.1131 16.9332 14.1889 16.8125 14.3095L14.3093 16.8127C14.1887 16.9334 14.1128 17.0915 14.0942 17.2611C14.0756 17.4307 14.1153 17.6016 14.2069 17.7455L15.5027 19.7833C15.3112 20.1685 15.1461 20.5663 15.0087 20.974L12.6529 21.4976C12.4864 21.5346 12.3374 21.6273 12.2307 21.7604C12.1239 21.8935 12.0657 22.059 12.0657 22.2296V25.7708C12.0657 25.9414 12.1239 26.1069 12.2307 26.24C12.3374 26.3731 12.4864 26.4658 12.6529 26.5029L12.6526 26.5027ZM23.9995 30.2745C22.7586 30.2745 21.5455 29.9065 20.5138 29.2171C19.482 28.5276 18.6778 27.5477 18.203 26.4013C17.7281 25.2548 17.6039 23.9933 17.8459 22.7762C18.088 21.5591 18.6856 20.4412 19.563 19.5637C20.4405 18.6863 21.5584 18.0887 22.7755 17.8466C23.9926 17.6045 25.2541 17.7288 26.4005 18.2036C27.547 18.6785 28.5269 19.4827 29.2163 20.5144C29.9057 21.5462 30.2737 22.7593 30.2737 24.0002C30.2718 25.6636 29.6102 27.2584 28.4339 28.4347C27.2577 29.6109 25.6629 30.2726 23.9995 30.2745ZM23.9995 19.2259C24.9437 19.2259 25.8668 19.5059 26.6519 20.0306C27.4371 20.5552 28.049 21.3008 28.4103 22.1732C28.7717 23.0456 28.8662 24.0056 28.682 24.9317C28.4978 25.8579 28.0431 26.7086 27.3754 27.3763C26.7077 28.044 25.857 28.4987 24.9308 28.6829C24.0047 28.8671 23.0447 28.7725 22.1723 28.4112C21.3 28.0498 20.5543 27.4378 20.0297 26.6527C19.5051 25.8675 19.2251 24.9445 19.2252 24.0002C19.2266 22.7344 19.7301 21.5209 20.6251 20.6258C21.5202 19.7308 22.7337 19.2273 23.9995 19.2259ZM37.535 33.3034C37.6186 33.3555 37.7117 33.3906 37.8089 33.4067C37.906 33.4228 38.0054 33.4196 38.1014 33.3973C38.1973 33.375 38.2879 33.334 38.368 33.2767C38.4481 33.2194 38.5161 33.1468 38.5682 33.0632C39.9428 30.8569 40.796 28.3659 41.0626 25.7801C41.8653 26.5188 43.1091 27.0142 44.3283 27.1447C44.531 27.1667 44.7348 27.1779 44.9387 27.1783C46.4907 27.1783 47.5815 26.4864 47.8451 25.2962C48.0516 24.4447 48.0516 23.5562 47.8451 22.7047C47.5474 21.3583 46.2037 20.6466 44.3353 20.8466C43.1132 20.9778 41.8663 21.4747 41.0626 22.2168C40.7957 19.6322 39.9428 17.1425 38.5687 14.9372C38.5166 14.8536 38.4486 14.7811 38.3685 14.7239C38.2883 14.6666 38.1977 14.6256 38.1018 14.6034C38.0058 14.5811 37.9064 14.578 37.8093 14.5941C37.7121 14.6103 37.6191 14.6454 37.5355 14.6975C37.4519 14.7496 37.3794 14.8177 37.3221 14.8978C37.2648 14.9779 37.2239 15.0685 37.2016 15.1645C37.1794 15.2604 37.1762 15.3598 37.1924 15.457C37.2085 15.5542 37.2437 15.6472 37.2958 15.7308C38.8382 18.2133 39.6555 21.0776 39.6555 24.0003C39.6555 26.9229 38.8382 29.7873 37.2958 32.2698C37.1906 32.4387 37.1567 32.6424 37.2017 32.8362C37.2467 33.0301 37.3668 33.1981 37.5356 33.3034H37.535ZM15.7298 10.7043C18.2124 9.16191 21.0768 8.34452 23.9994 8.34452C26.9221 8.34452 29.7865 9.16191 32.269 10.7043C32.3526 10.7564 32.4456 10.7916 32.5428 10.8077C32.6399 10.8239 32.7393 10.8207 32.8353 10.7985C32.9312 10.7762 33.0218 10.7353 33.102 10.678C33.1821 10.6207 33.2501 10.5482 33.3022 10.4646C33.3543 10.381 33.3895 10.288 33.4056 10.1908C33.4218 10.0936 33.4186 9.99426 33.3964 9.89831C33.3741 9.80236 33.3332 9.71174 33.2759 9.63161C33.2186 9.55149 33.1461 9.48343 33.0625 9.43133C30.8561 8.0565 28.3651 7.20337 25.7791 6.9369C26.5179 6.13408 27.0133 4.89034 27.1439 3.67125C27.3443 1.79767 26.6361 0.451637 25.2951 0.154905C24.4437 -0.051635 23.5552 -0.051635 22.7038 0.154905C21.3574 0.452575 20.6457 1.7956 20.8458 3.6646C20.977 4.88678 21.4739 6.13324 22.2159 6.93728C19.6313 7.20423 17.1417 8.05715 14.9363 9.43114C14.8527 9.48324 14.7802 9.5513 14.7229 9.63143C14.6657 9.71155 14.6247 9.80217 14.6025 9.89812C14.5802 9.99407 14.577 10.0935 14.5932 10.1906C14.6094 10.2878 14.6445 10.3808 14.6966 10.4644C14.7487 10.548 14.8167 10.6205 14.8969 10.6778C14.977 10.7351 15.0676 10.776 15.1636 10.7983C15.2595 10.8205 15.3589 10.8237 15.4561 10.8075C15.5532 10.7914 15.6463 10.7562 15.7298 10.7041V10.7043Z" fill="#6B48F2"/>
</svg>
