<svg width="48" height="48" viewBox="0 0 48 48" fill="none" xmlns="http://www.w3.org/2000/svg">
<path d="M42.7605 22.9L33.7605 17.7C33.3005 17.44 32.7205 17.44 32.2605 17.7L23.2605 22.9C23.2605 22.9 23.2604 22.92 23.2404 22.92L15.0005 27.68L7.50046 23.34V14.68L15.0005 10.34L22.5005 14.68V16.96C22.5005 17.78 23.1805 18.46 24.0005 18.46C24.8205 18.46 25.5005 17.78 25.5005 16.96V13.8C25.5005 13.26 25.2204 12.76 24.7404 12.5L15.7404 7.29998C15.2804 7.03998 14.7004 7.03998 14.2404 7.29998L5.24045 12.5C4.78045 12.76 4.48047 13.26 4.48047 13.8V24.2C4.48047 24.74 4.76045 25.24 5.24045 25.5L14.2404 30.7C14.4804 30.84 14.7405 30.9 15.0005 30.9C15.2605 30.9 15.5205 30.84 15.7605 30.7L24.7605 25.5C24.7605 25.5 24.7605 25.48 24.7805 25.48L33.0204 20.72L40.5204 25.06V33.72L33.0204 38.06L25.5204 33.72V31.28C25.5204 30.46 24.8404 29.78 24.0204 29.78C23.2004 29.78 22.5204 30.46 22.5204 31.28V34.58C22.5204 35.12 22.8005 35.62 23.2805 35.88L32.2805 41.08C32.5205 41.22 32.7805 41.28 33.0405 41.28C33.3005 41.28 33.5604 41.22 33.8004 41.08L42.8004 35.88C43.2604 35.62 43.5605 35.12 43.5605 34.58V24.18C43.5005 23.66 43.2205 23.16 42.7605 22.9Z" fill="#F0631C"/>
<path d="M9 16.7001V21.3201C9 22.0401 9.38 22.7001 10 23.0601L14 25.3601C14.62 25.7201 15.38 25.7201 16 25.3601L20 23.0601C20.62 22.7001 21 22.0401 21 21.3201V16.7001C21 15.9801 20.62 15.3201 20 14.9601L16 12.6601C15.38 12.3001 14.62 12.3001 14 12.6601L10 14.9601C9.38 15.3201 9 15.9801 9 16.7001Z" fill="#F0631C"/>
<path d="M27 27.1V31.72C27 32.44 27.38 33.1 28 33.46L32 35.76C32.62 36.12 33.38 36.12 34 35.76L38 33.46C38.62 33.1 39 32.44 39 31.72V27.1C39 26.38 38.62 25.72 38 25.36L34 23.06C33.38 22.7 32.62 22.7 32 23.06L28 25.36C27.38 25.72 27 26.38 27 27.1Z" fill="#F0631C"/>
</svg>
