<svg width="20" height="20" viewBox="0 0 20 20" fill="none" xmlns="http://www.w3.org/2000/svg">
<path d="M16.9667 10.6084C16.6584 10.6084 16.4 10.3751 16.3667 10.0667C16.1667 8.23339 15.1834 6.58339 13.6667 5.53339C13.3917 5.34173 13.325 4.96673 13.5167 4.69173C13.7084 4.41673 14.0834 4.35006 14.3584 4.54173C16.1667 5.80006 17.3334 7.76673 17.575 9.94173C17.6084 10.2751 17.3667 10.5751 17.0334 10.6084C17.0084 10.6084 16.9917 10.6084 16.9667 10.6084Z" fill="black"/>
<path d="M3.11662 10.6499C3.09996 10.6499 3.07496 10.6499 3.05829 10.6499C2.72496 10.6166 2.48329 10.3166 2.51662 9.98326C2.74162 7.80826 3.89162 5.84159 5.68329 4.57492C5.94996 4.38326 6.33329 4.44992 6.52496 4.71659C6.71662 4.99159 6.64996 5.36659 6.38329 5.55826C4.88329 6.62492 3.90829 8.27492 3.72496 10.0999C3.69162 10.4166 3.42496 10.6499 3.11662 10.6499Z" fill="black"/>
<path d="M13.325 17.5834C12.3 18.0751 11.2 18.3251 10.05 18.3251C8.84996 18.3251 7.70829 18.0584 6.64163 17.5168C6.34163 17.3751 6.22496 17.0084 6.37496 16.7084C6.51663 16.4084 6.88329 16.2918 7.18329 16.4334C7.70829 16.7001 8.26663 16.8834 8.8333 16.9918C9.59996 17.1418 10.3833 17.1501 11.15 17.0168C11.7166 16.9168 12.275 16.7418 12.7916 16.4918C13.1 16.3501 13.4666 16.4668 13.6 16.7751C13.75 17.0751 13.6333 17.4418 13.325 17.5834Z" fill="black"/>
<path d="M10.0417 1.67505C8.74998 1.67505 7.69165 2.72505 7.69165 4.02505C7.69165 5.32505 8.74165 6.37505 10.0417 6.37505C11.3417 6.37505 12.3917 5.32505 12.3917 4.02505C12.3917 2.72505 11.3417 1.67505 10.0417 1.67505Z" fill="black"/>
<path d="M4.20828 11.5583C2.91661 11.5583 1.85828 12.6084 1.85828 13.9083C1.85828 15.2083 2.90828 16.2583 4.20828 16.2583C5.50828 16.2583 6.55828 15.2083 6.55828 13.9083C6.55828 12.6084 5.49994 11.5583 4.20828 11.5583Z" fill="black"/>
<path d="M15.7917 11.5583C14.5 11.5583 13.4417 12.6084 13.4417 13.9083C13.4417 15.2083 14.4917 16.2583 15.7917 16.2583C17.0917 16.2583 18.1417 15.2083 18.1417 13.9083C18.1417 12.6084 17.0917 11.5583 15.7917 11.5583Z" fill="black"/>
</svg>
