<svg width="32" height="32" viewBox="0 0 32 32" fill="none" xmlns="http://www.w3.org/2000/svg">
<path d="M22.6667 4.66602H9.33335C5.33335 4.66602 2.66669 6.66602 2.66669 11.3327V20.666C2.66669 25.3327 5.33335 27.3327 9.33335 27.3327H22.6667C26.6667 27.3327 29.3334 25.3327 29.3334 20.666V11.3327C29.3334 6.66602 26.6667 4.66602 22.6667 4.66602ZM23.2934 12.786L19.12 16.1193C18.24 16.826 17.12 17.1727 16 17.1727C14.88 17.1727 13.7467 16.826 12.88 16.1193L8.70669 12.786C8.28002 12.4393 8.21335 11.7993 8.54669 11.3727C8.89335 10.946 9.52002 10.866 9.94669 11.2127L14.12 14.546C15.1334 15.3593 16.8534 15.3593 17.8667 14.546L22.04 11.2127C22.4667 10.866 23.1067 10.9327 23.44 11.3727C23.7867 11.7993 23.72 12.4393 23.2934 12.786Z" fill="black"/>
</svg>
