<svg width="24" height="24" viewBox="0 0 24 24" fill="none" xmlns="http://www.w3.org/2000/svg">
<path d="M21.3536 9.04257L15.358 8.1301L12.6778 2.44017C12.6046 2.28438 12.4841 2.15827 12.3354 2.08161C11.9623 1.88873 11.5089 2.04947 11.3223 2.44017L8.64213 8.1301L2.64652 9.04257C2.48122 9.0673 2.33009 9.1489 2.21438 9.27254C2.07449 9.4231 1.99741 9.62566 2.00007 9.8357C2.00272 10.0457 2.0849 10.2461 2.22855 10.3927L6.56645 14.8215L5.5416 21.0753C5.51757 21.2207 5.53294 21.3703 5.58598 21.5071C5.63901 21.6439 5.72759 21.7624 5.84166 21.8492C5.95573 21.9359 6.09074 21.9875 6.23137 21.998C6.37199 22.0085 6.51262 21.9775 6.63729 21.9086L12 18.9561L17.3628 21.9086C17.5092 21.9902 17.6792 22.0174 17.8422 21.9877C18.2531 21.9135 18.5293 21.5055 18.4585 21.0753L17.4336 14.8215L21.7715 10.3927C21.8896 10.2716 21.9675 10.1133 21.9912 9.9402C22.0549 9.50746 21.7668 9.10686 21.3536 9.04257Z" fill="#FECE00"/>
</svg>
