<svg width="40" height="40" viewBox="0 0 40 40" fill="none" xmlns="http://www.w3.org/2000/svg">
<path fill-rule="evenodd" clip-rule="evenodd" d="M34.1667 3.33325H8.39998C7.84998 3.33325 7.31667 3.61661 7.01667 4.08327L4.44999 7.91659C4.26665 8.18325 4.16666 8.51657 4.16666 8.83323V29.9999C4.16666 30.9166 4.91666 31.6666 5.83332 31.6666H9.16666C10.0833 31.6666 10.8333 32.4166 10.8333 33.3333V34.9999C10.8333 35.9166 11.5833 36.6666 12.5 36.6666H14.9333C15.4833 36.6666 16.0166 36.3832 16.3166 35.9166L18.6667 32.3999C18.9833 31.9333 19.5 31.6499 20.05 31.6499H26.8C27.25 31.6499 27.6666 31.4666 27.9833 31.1666L35.3333 23.8166C35.65 23.4999 35.8167 23.0832 35.8167 22.6332V4.99992C35.8333 4.08325 35.0833 3.33325 34.1667 3.33325ZM17.9833 21.4332C17.9833 21.9666 17.55 22.3832 17.0333 22.3832H15.1333C14.6 22.3832 14.1833 21.9499 14.1833 21.4332V11.9166C14.1833 11.3832 14.6167 10.9666 15.1333 10.9666H17.0333C17.5667 10.9666 17.9833 11.3999 17.9833 11.9166V21.4332ZM27.5 21.4332C27.5 21.9666 27.0666 22.3832 26.55 22.3832H24.65C24.1166 22.3832 23.7 21.9499 23.7 21.4332V11.9166C23.7 11.3832 24.1333 10.9666 24.65 10.9666H26.55C27.0833 10.9666 27.5 11.3999 27.5 11.9166V21.4332Z" fill="black"/>
</svg>
