<svg width="20" height="20" viewBox="0 0 20 20" fill="none" xmlns="http://www.w3.org/2000/svg">
<g id="verify">
<path id="Vector" d="M8.95828 2.0416C9.53328 1.54993 10.4749 1.54993 11.0583 2.0416L12.3749 3.17493C12.6249 3.3916 13.0916 3.5666 13.4249 3.5666H14.8416C15.7249 3.5666 16.4499 4.2916 16.4499 5.17493V6.5916C16.4499 6.9166 16.6249 7.3916 16.8416 7.6416L17.9749 8.95827C18.4666 9.53327 18.4666 10.4749 17.9749 11.0583L16.8416 12.3749C16.6249 12.6249 16.4499 13.0916 16.4499 13.4249V14.8416C16.4499 15.7249 15.7249 16.4499 14.8416 16.4499H13.4249C13.0999 16.4499 12.6249 16.6249 12.3749 16.8416L11.0583 17.9749C10.4833 18.4666 9.54161 18.4666 8.95828 17.9749L7.64161 16.8416C7.39161 16.6249 6.92494 16.4499 6.59161 16.4499H5.14994C4.26661 16.4499 3.54161 15.7249 3.54161 14.8416V13.4166C3.54161 13.0916 3.36661 12.6249 3.15828 12.3749L2.03328 11.0499C1.54994 10.4749 1.54994 9.5416 2.03328 8.9666L3.15828 7.6416C3.36661 7.3916 3.54161 6.92493 3.54161 6.59994V5.1666C3.54161 4.28327 4.26661 3.55827 5.14994 3.55827H6.59161C6.91661 3.55827 7.39161 3.38327 7.64161 3.1666L8.95828 2.0416Z" fill="#6B48F2" stroke="#6B48F2" stroke-width="1.5" stroke-linecap="round" stroke-linejoin="round"/>
<path id="Vector_2" d="M6.98328 10.0001L8.99161 12.0167L13.0166 7.9834" stroke="white" stroke-width="1.5" stroke-linecap="round" stroke-linejoin="round"/>
</g>
</svg>
